<?xml version="1.0" encoding="UTF-8"?>
<svg id="Layer_1" data-name="Layer 1" xmlns="http://www.w3.org/2000/svg" viewBox="0 0 100 100">
  <rect x="43.1" y="7.07" width="14.3" height="58.99"/>
  <path d="M50.25,92.93c-5.28,0-10.4-1.03-15.22-3.08-4.66-1.97-8.84-4.79-12.43-8.38-3.59-3.59-6.41-7.77-8.38-12.43-2.04-4.83-3.08-9.95-3.08-15.22,0-14.34,7.83-27.51,20.44-34.37l6.83,12.56c-8,4.35-12.98,12.71-12.98,21.81,0,6.63,2.58,12.85,7.26,17.54,4.68,4.68,10.91,7.26,17.54,7.26s12.85-2.58,17.54-7.26c4.68-4.68,7.26-10.91,7.26-17.54,0-9.1-4.97-17.46-12.98-21.81l6.83-12.56c12.61,6.86,20.44,20.03,20.44,34.37,0,5.28-1.03,10.4-3.08,15.22-1.97,4.66-4.79,8.84-8.38,12.43-3.59,3.59-7.77,6.41-12.43,8.38-4.83,2.04-9.95,3.08-15.22,3.08Z"/>
</svg>