<svg xmlns="http://www.w3.org/2000/svg" width="120" height="32" viewBox="0 0 120 32" fill="none">
  <path d="M28.8 0H3.2C1.43 0 0 1.43 0 3.2v25.6C0 30.57 1.43 32 3.2 32h25.6c1.77 0 3.2-1.43 3.2-3.2V3.2C32 1.43 30.57 0 28.8 0zM9.6 27.2H4.8V12h4.8v15.2zM7.2 10.08c-1.54 0-2.8-1.26-2.8-2.8s1.26-2.8 2.8-2.8 2.8 1.26 2.8 2.8-1.26 2.8-2.8 2.8zm20 17.12h-4.8v-7.36c0-1.76 0-4.02-2.45-4.02-2.46 0-2.83 1.92-2.83 3.9v7.48h-4.8V12h4.6v2.04h.06c.62-1.18 2.14-2.43 4.4-2.43 4.71 0 5.58 3.1 5.58 7.13v8.46z" fill="#202020"/>
  <text x="38" y="22" font-family="system-ui, -apple-system, sans-serif" font-size="16" font-weight="600" fill="#202020">LinkedIn</text>
</svg>
